<svg width="25" height="24" viewBox="0 0 25 24" fill="none" xmlns="http://www.w3.org/2000/svg">
<path fill-rule="evenodd" clip-rule="evenodd" d="M18.1378 7.1199V7.1199C17.7648 7.1199 17.4268 6.9049 17.2678 6.5689C16.9808 5.9609 16.6158 5.1839 16.3998 4.7609C16.0808 4.1319 15.5638 3.7659 14.8478 3.7609C14.8358 3.7599 10.1638 3.7599 10.1518 3.7609C9.4358 3.7659 8.9198 4.1319 8.5998 4.7609C8.3848 5.1839 8.0198 5.9609 7.7328 6.5689C7.5738 6.9049 7.2348 7.1199 6.8628 7.1199V7.1199C4.8668 7.1199 3.2498 8.7369 3.2498 10.7319V16.6679C3.2498 18.6619 4.8668 20.2799 6.8628 20.2799H18.1378C20.1328 20.2799 21.7498 18.6619 21.7498 16.6679V10.7319C21.7498 8.7369 20.1328 7.1199 18.1378 7.1199Z" stroke="#788BA5" stroke-width="1.5" stroke-linecap="round" stroke-linejoin="round"/>
<path fill-rule="evenodd" clip-rule="evenodd" d="M9.3214 13.3445C9.3204 15.0975 10.7514 16.5315 12.5014 16.5305C14.2484 16.5285 15.6754 15.1005 15.6784 13.3515C15.6814 11.5955 14.2554 10.1645 12.5034 10.1625C10.7414 10.1605 9.3074 11.6155 9.3214 13.3445Z" stroke="#788BA5" stroke-width="1.5" stroke-linecap="round" stroke-linejoin="round"/>
<path d="M17.4025 11.0051C17.3059 10.9952 17.2105 10.97 17.1036 10.9269C16.9847 10.8741 16.8818 10.8069 16.7823 10.7059C16.6035 10.5157 16.5 10.267 16.5 10.0105C16.5 9.87422 16.5279 9.73916 16.5823 9.61681C16.6368 9.49286 16.7014 9.38829 16.8182 9.27456C16.907 9.19719 16.998 9.13493 17.1224 9.08013C17.4913 8.93396 17.9301 9.0213 18.2043 9.29541C18.2865 9.37639 18.3557 9.47411 18.3941 9.55651L18.4169 9.61494C18.4721 9.73916 18.5 9.87422 18.5 10.0105C18.5 10.2722 18.3978 10.5143 18.2081 10.7158C18.0442 10.8808 17.8289 10.9823 17.5992 11.0051L17.5 11.01L17.4025 11.0051Z" fill="#788BA5"/>
</svg>
