<svg width="40" height="41" viewBox="0 0 40 41" fill="none" xmlns="http://www.w3.org/2000/svg">
<rect y="0.5" width="40" height="40" rx="20" fill="#F6F8FB"/>
<g clip-path="url(#clip0_21_362)">
<path d="M20 12.5C19.8011 12.5 19.6103 12.579 19.4697 12.7197C19.329 12.8603 19.25 13.0511 19.25 13.25C19.25 13.4489 19.329 13.6397 19.4697 13.7803C19.6103 13.921 19.8011 14 20 14C21.7239 14 23.3772 14.6848 24.5962 15.9038C25.8152 17.1228 26.5 18.7761 26.5 20.5C26.5 22.2239 25.8152 23.8772 24.5962 25.0962C23.3772 26.3152 21.7239 27 20 27C19.8011 27 19.6103 27.079 19.4697 27.2197C19.329 27.3603 19.25 27.5511 19.25 27.75C19.25 27.9489 19.329 28.1397 19.4697 28.2803C19.6103 28.421 19.8011 28.5 20 28.5C22.1217 28.5 24.1566 27.6571 25.6569 26.1569C27.1571 24.6566 28 22.6217 28 20.5C28 18.3783 27.1571 16.3434 25.6569 14.8431C24.1566 13.3429 22.1217 12.5 20 12.5Z" fill="#788BA5"/>
<path d="M12.75 19.75C12.5511 19.75 12.3603 19.829 12.2197 19.9697C12.079 20.1103 12 20.3011 12 20.5C12 20.6989 12.079 20.8897 12.2197 21.0303C12.3603 21.171 12.5511 21.25 12.75 21.25H19.44L17.72 22.97C17.6463 23.0387 17.5872 23.1215 17.5462 23.2135C17.5052 23.3055 17.4832 23.4048 17.4814 23.5055C17.4796 23.6062 17.4982 23.7062 17.5359 23.7996C17.5736 23.893 17.6297 23.9778 17.701 24.049C17.7722 24.1203 17.857 24.1764 17.9504 24.2141C18.0438 24.2518 18.1438 24.2704 18.2445 24.2686C18.3452 24.2668 18.4445 24.2448 18.5365 24.2038C18.6285 24.1628 18.7113 24.1037 18.78 24.03L21.78 21.03C21.9205 20.8894 21.9993 20.6987 21.9993 20.5C21.9993 20.3012 21.9205 20.1106 21.78 19.97L18.78 16.97C18.6378 16.8375 18.4498 16.7654 18.2555 16.7688C18.0612 16.7723 17.8758 16.851 17.7384 16.9884C17.601 17.1258 17.5223 17.3112 17.5188 17.5055C17.5154 17.6998 17.5875 17.8878 17.72 18.03L19.44 19.75H12.75Z" fill="#788BA5"/>
</g>
<defs>
<clipPath id="clip0_21_362">
<rect width="20" height="20" fill="white" transform="translate(10 10.5)"/>
</clipPath>
</defs>
</svg>
